<mxfile host="app.diagrams.net" modified="2023-10-04T10:45:32.130Z" agent="Mozilla/5.0 (Windows NT 10.0; Win64; x64) AppleWebKit/537.36 (KHTML, like Gecko) Chrome/117.0.0.0 Safari/537.36 Edg/117.0.2045.47" etag="q75CNC_G3NZnlNPi2mnD" version="22.0.2" type="device">
  <diagram name="PÃ¡gina-1" id="0qJBGttC3PnJGThFjGUG">
    <mxGraphModel dx="1612" dy="1581" grid="1" gridSize="10" guides="1" tooltips="1" connect="1" arrows="1" fold="1" page="1" pageScale="1" pageWidth="827" pageHeight="1169" math="0" shadow="0">
      <root>
        <mxCell id="0" />
        <mxCell id="1" parent="0" />
        <mxCell id="hO1tPXh8Bk7Fy7xaMDZI-4" style="edgeStyle=orthogonalEdgeStyle;rounded=0;orthogonalLoop=1;jettySize=auto;html=1;entryX=0.5;entryY=1;entryDx=0;entryDy=0;entryPerimeter=0;" parent="1" source="hO1tPXh8Bk7Fy7xaMDZI-1" target="hO1tPXh8Bk7Fy7xaMDZI-2" edge="1">
          <mxGeometry relative="1" as="geometry">
            <Array as="points">
              <mxPoint x="-268" y="630" />
            </Array>
          </mxGeometry>
        </mxCell>
        <mxCell id="hO1tPXh8Bk7Fy7xaMDZI-5" style="edgeStyle=orthogonalEdgeStyle;rounded=0;orthogonalLoop=1;jettySize=auto;html=1;entryX=0;entryY=0.5;entryDx=0;entryDy=0;entryPerimeter=0;" parent="1" source="hO1tPXh8Bk7Fy7xaMDZI-1" target="hO1tPXh8Bk7Fy7xaMDZI-3" edge="1">
          <mxGeometry relative="1" as="geometry">
            <Array as="points" />
          </mxGeometry>
        </mxCell>
        <mxCell id="hO1tPXh8Bk7Fy7xaMDZI-1" value="Admin" style="rounded=1;whiteSpace=wrap;html=1;" parent="1" vertex="1">
          <mxGeometry x="-134" y="600" width="120" height="60" as="geometry" />
        </mxCell>
        <mxCell id="hO1tPXh8Bk7Fy7xaMDZI-8" style="edgeStyle=orthogonalEdgeStyle;rounded=0;orthogonalLoop=1;jettySize=auto;html=1;entryX=0.5;entryY=1;entryDx=0;entryDy=0;" parent="1" source="hO1tPXh8Bk7Fy7xaMDZI-2" target="hO1tPXh8Bk7Fy7xaMDZI-6" edge="1">
          <mxGeometry relative="1" as="geometry">
            <Array as="points">
              <mxPoint x="-268" y="40" />
            </Array>
          </mxGeometry>
        </mxCell>
        <mxCell id="hO1tPXh8Bk7Fy7xaMDZI-2" value="" style="shape=cylinder3;whiteSpace=wrap;html=1;boundedLbl=1;backgroundOutline=1;size=15;fillColor=#d5e8d4;strokeColor=#82b366;" parent="1" vertex="1">
          <mxGeometry x="-298" y="310" width="60" height="80" as="geometry" />
        </mxCell>
        <mxCell id="hO1tPXh8Bk7Fy7xaMDZI-9" style="edgeStyle=orthogonalEdgeStyle;rounded=0;orthogonalLoop=1;jettySize=auto;html=1;entryX=0.5;entryY=1;entryDx=0;entryDy=0;" parent="1" source="hO1tPXh8Bk7Fy7xaMDZI-3" target="hO1tPXh8Bk7Fy7xaMDZI-7" edge="1">
          <mxGeometry relative="1" as="geometry" />
        </mxCell>
        <mxCell id="hO1tPXh8Bk7Fy7xaMDZI-3" value="" style="shape=cylinder3;whiteSpace=wrap;html=1;boundedLbl=1;backgroundOutline=1;size=15;fillColor=#d5e8d4;strokeColor=#82b366;" parent="1" vertex="1">
          <mxGeometry x="112" y="590" width="60" height="80" as="geometry" />
        </mxCell>
        <mxCell id="hO1tPXh8Bk7Fy7xaMDZI-11" style="edgeStyle=orthogonalEdgeStyle;rounded=0;orthogonalLoop=1;jettySize=auto;html=1;exitX=0;exitY=0.5;exitDx=0;exitDy=0;entryX=1;entryY=0.5;entryDx=0;entryDy=0;entryPerimeter=0;" parent="1" source="hO1tPXh8Bk7Fy7xaMDZI-6" target="hO1tPXh8Bk7Fy7xaMDZI-10" edge="1">
          <mxGeometry relative="1" as="geometry">
            <Array as="points">
              <mxPoint x="-268" y="-20" />
            </Array>
          </mxGeometry>
        </mxCell>
        <mxCell id="9q5zIYayFqP9UG4JwgqR-4" style="edgeStyle=orthogonalEdgeStyle;rounded=0;orthogonalLoop=1;jettySize=auto;html=1;" edge="1" parent="1" source="hO1tPXh8Bk7Fy7xaMDZI-6" target="hO1tPXh8Bk7Fy7xaMDZI-28">
          <mxGeometry relative="1" as="geometry">
            <Array as="points">
              <mxPoint x="207" y="60" />
              <mxPoint x="207" y="60" />
            </Array>
          </mxGeometry>
        </mxCell>
        <mxCell id="hO1tPXh8Bk7Fy7xaMDZI-6" value="Menu" style="rounded=1;whiteSpace=wrap;html=1;" parent="1" vertex="1">
          <mxGeometry x="117" y="-50" width="120" height="60" as="geometry" />
        </mxCell>
        <mxCell id="hO1tPXh8Bk7Fy7xaMDZI-13" style="edgeStyle=orthogonalEdgeStyle;rounded=0;orthogonalLoop=1;jettySize=auto;html=1;entryX=0;entryY=0.5;entryDx=0;entryDy=0;entryPerimeter=0;" parent="1" source="hO1tPXh8Bk7Fy7xaMDZI-7" target="hO1tPXh8Bk7Fy7xaMDZI-12" edge="1">
          <mxGeometry relative="1" as="geometry" />
        </mxCell>
        <mxCell id="hO1tPXh8Bk7Fy7xaMDZI-27" style="edgeStyle=orthogonalEdgeStyle;rounded=0;orthogonalLoop=1;jettySize=auto;html=1;exitX=0;exitY=0.5;exitDx=0;exitDy=0;" parent="1" source="hO1tPXh8Bk7Fy7xaMDZI-7" edge="1">
          <mxGeometry relative="1" as="geometry">
            <mxPoint x="212" y="449.3333333333335" as="targetPoint" />
          </mxGeometry>
        </mxCell>
        <mxCell id="hO1tPXh8Bk7Fy7xaMDZI-7" value="Usuarios" style="rounded=1;whiteSpace=wrap;html=1;" parent="1" vertex="1">
          <mxGeometry x="332" y="420" width="120" height="60" as="geometry" />
        </mxCell>
        <mxCell id="hO1tPXh8Bk7Fy7xaMDZI-12" value="" style="shape=cylinder3;whiteSpace=wrap;html=1;boundedLbl=1;backgroundOutline=1;size=15;fillColor=#dae8fc;strokeColor=#6c8ebf;" parent="1" vertex="1">
          <mxGeometry x="512" y="410" width="60" height="80" as="geometry" />
        </mxCell>
        <mxCell id="hO1tPXh8Bk7Fy7xaMDZI-22" style="edgeStyle=orthogonalEdgeStyle;rounded=0;orthogonalLoop=1;jettySize=auto;html=1;entryX=0.5;entryY=0;entryDx=0;entryDy=0;entryPerimeter=0;" parent="1" source="hO1tPXh8Bk7Fy7xaMDZI-14" target="hO1tPXh8Bk7Fy7xaMDZI-21" edge="1">
          <mxGeometry relative="1" as="geometry" />
        </mxCell>
        <mxCell id="hO1tPXh8Bk7Fy7xaMDZI-14" value="Ticket Emittion" style="rounded=1;whiteSpace=wrap;html=1;" parent="1" vertex="1">
          <mxGeometry x="332" y="-380" width="120" height="60" as="geometry" />
        </mxCell>
        <mxCell id="hO1tPXh8Bk7Fy7xaMDZI-15" value="Topic CRUD Producto" style="text;html=1;align=center;verticalAlign=middle;resizable=0;points=[];autosize=1;strokeColor=none;fillColor=none;" parent="1" vertex="1">
          <mxGeometry x="-438" y="340" width="140" height="30" as="geometry" />
        </mxCell>
        <mxCell id="hO1tPXh8Bk7Fy7xaMDZI-16" value="Topic CRUD Usuarui" style="text;html=1;align=center;verticalAlign=middle;resizable=0;points=[];autosize=1;strokeColor=none;fillColor=none;" parent="1" vertex="1">
          <mxGeometry x="77" y="670" width="130" height="30" as="geometry" />
        </mxCell>
        <mxCell id="hO1tPXh8Bk7Fy7xaMDZI-19" style="edgeStyle=orthogonalEdgeStyle;rounded=0;orthogonalLoop=1;jettySize=auto;html=1;entryX=0;entryY=0;entryDx=0;entryDy=52.5;entryPerimeter=0;" parent="1" source="hO1tPXh8Bk7Fy7xaMDZI-17" target="hO1tPXh8Bk7Fy7xaMDZI-18" edge="1">
          <mxGeometry relative="1" as="geometry">
            <Array as="points">
              <mxPoint x="-48" y="-180" />
              <mxPoint x="196" y="-180" />
              <mxPoint x="196" y="-177" />
            </Array>
          </mxGeometry>
        </mxCell>
        <mxCell id="hO1tPXh8Bk7Fy7xaMDZI-17" value="Offers" style="rounded=1;whiteSpace=wrap;html=1;" parent="1" vertex="1">
          <mxGeometry x="-108" y="-380" width="120" height="60" as="geometry" />
        </mxCell>
        <mxCell id="hO1tPXh8Bk7Fy7xaMDZI-20" style="edgeStyle=orthogonalEdgeStyle;rounded=0;orthogonalLoop=1;jettySize=auto;html=1;entryX=0.5;entryY=0;entryDx=0;entryDy=0;" parent="1" source="hO1tPXh8Bk7Fy7xaMDZI-18" target="hO1tPXh8Bk7Fy7xaMDZI-6" edge="1">
          <mxGeometry relative="1" as="geometry" />
        </mxCell>
        <mxCell id="hO1tPXh8Bk7Fy7xaMDZI-23" style="edgeStyle=orthogonalEdgeStyle;rounded=0;orthogonalLoop=1;jettySize=auto;html=1;entryX=1;entryY=0.5;entryDx=0;entryDy=0;" parent="1" source="hO1tPXh8Bk7Fy7xaMDZI-21" target="hO1tPXh8Bk7Fy7xaMDZI-6" edge="1">
          <mxGeometry relative="1" as="geometry">
            <Array as="points">
              <mxPoint x="292" y="-20" />
              <mxPoint x="292" y="-20" />
            </Array>
          </mxGeometry>
        </mxCell>
        <mxCell id="hO1tPXh8Bk7Fy7xaMDZI-24" style="edgeStyle=orthogonalEdgeStyle;rounded=0;orthogonalLoop=1;jettySize=auto;html=1;exitX=0.5;exitY=1;exitDx=0;exitDy=0;exitPerimeter=0;entryX=0.5;entryY=0;entryDx=0;entryDy=0;" parent="1" source="hO1tPXh8Bk7Fy7xaMDZI-21" target="hO1tPXh8Bk7Fy7xaMDZI-7" edge="1">
          <mxGeometry relative="1" as="geometry">
            <mxPoint x="382" y="300" as="targetPoint" />
          </mxGeometry>
        </mxCell>
        <mxCell id="hO1tPXh8Bk7Fy7xaMDZI-32" style="edgeStyle=orthogonalEdgeStyle;rounded=0;orthogonalLoop=1;jettySize=auto;html=1;entryX=0.5;entryY=0;entryDx=0;entryDy=0;" parent="1" source="hO1tPXh8Bk7Fy7xaMDZI-28" target="hO1tPXh8Bk7Fy7xaMDZI-30" edge="1">
          <mxGeometry relative="1" as="geometry" />
        </mxCell>
        <mxCell id="hO1tPXh8Bk7Fy7xaMDZI-31" style="edgeStyle=orthogonalEdgeStyle;rounded=0;orthogonalLoop=1;jettySize=auto;html=1;entryX=1;entryY=0.5;entryDx=0;entryDy=0;" parent="1" source="hO1tPXh8Bk7Fy7xaMDZI-29" target="hO1tPXh8Bk7Fy7xaMDZI-30" edge="1">
          <mxGeometry relative="1" as="geometry" />
        </mxCell>
        <mxCell id="hO1tPXh8Bk7Fy7xaMDZI-33" style="edgeStyle=orthogonalEdgeStyle;rounded=0;orthogonalLoop=1;jettySize=auto;html=1;exitX=0;exitY=0.5;exitDx=0;exitDy=0;" parent="1" source="hO1tPXh8Bk7Fy7xaMDZI-30" target="hO1tPXh8Bk7Fy7xaMDZI-34" edge="1">
          <mxGeometry relative="1" as="geometry">
            <mxPoint x="-148" y="449.3333333333335" as="targetPoint" />
          </mxGeometry>
        </mxCell>
        <mxCell id="hO1tPXh8Bk7Fy7xaMDZI-30" value="Ticket print" style="rounded=1;whiteSpace=wrap;html=1;" parent="1" vertex="1">
          <mxGeometry x="-68" y="420" width="120" height="60" as="geometry" />
        </mxCell>
        <mxCell id="hO1tPXh8Bk7Fy7xaMDZI-36" value="DB Usuario" style="text;html=1;align=center;verticalAlign=middle;resizable=0;points=[];autosize=1;strokeColor=none;fillColor=none;" parent="1" vertex="1">
          <mxGeometry x="502" y="500" width="80" height="30" as="geometry" />
        </mxCell>
        <mxCell id="9q5zIYayFqP9UG4JwgqR-3" value="" style="group" vertex="1" connectable="0" parent="1">
          <mxGeometry x="-518" y="-60" width="190" height="80" as="geometry" />
        </mxCell>
        <mxCell id="hO1tPXh8Bk7Fy7xaMDZI-10" value="" style="shape=cylinder3;whiteSpace=wrap;html=1;boundedLbl=1;backgroundOutline=1;size=15;fillColor=#dae8fc;strokeColor=#6c8ebf;" parent="9q5zIYayFqP9UG4JwgqR-3" vertex="1">
          <mxGeometry x="130" width="60" height="80" as="geometry" />
        </mxCell>
        <mxCell id="hO1tPXh8Bk7Fy7xaMDZI-39" value="DB PRODUCTS" style="text;html=1;align=center;verticalAlign=middle;resizable=0;points=[];autosize=1;strokeColor=none;fillColor=none;" parent="9q5zIYayFqP9UG4JwgqR-3" vertex="1">
          <mxGeometry y="30" width="110" height="30" as="geometry" />
        </mxCell>
        <mxCell id="9q5zIYayFqP9UG4JwgqR-8" value="" style="group" vertex="1" connectable="0" parent="1">
          <mxGeometry x="362" y="-60" width="215" height="80" as="geometry" />
        </mxCell>
        <mxCell id="hO1tPXh8Bk7Fy7xaMDZI-21" value="" style="shape=cylinder3;whiteSpace=wrap;html=1;boundedLbl=1;backgroundOutline=1;size=15;fillColor=#d5e8d4;strokeColor=#82b366;" parent="9q5zIYayFqP9UG4JwgqR-8" vertex="1">
          <mxGeometry width="60" height="80" as="geometry" />
        </mxCell>
        <mxCell id="hO1tPXh8Bk7Fy7xaMDZI-37" value="TOPIC CREATE TICKET" style="text;html=1;align=center;verticalAlign=middle;resizable=0;points=[];autosize=1;strokeColor=none;fillColor=none;" parent="9q5zIYayFqP9UG4JwgqR-8" vertex="1">
          <mxGeometry x="55" y="25" width="160" height="30" as="geometry" />
        </mxCell>
        <mxCell id="9q5zIYayFqP9UG4JwgqR-12" value="" style="group" vertex="1" connectable="0" parent="1">
          <mxGeometry x="112" y="380" width="130" height="110" as="geometry" />
        </mxCell>
        <mxCell id="hO1tPXh8Bk7Fy7xaMDZI-29" value="" style="shape=cylinder3;whiteSpace=wrap;html=1;boundedLbl=1;backgroundOutline=1;size=15;fillColor=#d5e8d4;strokeColor=#82b366;" parent="9q5zIYayFqP9UG4JwgqR-12" vertex="1">
          <mxGeometry x="35" y="30" width="60" height="80" as="geometry" />
        </mxCell>
        <mxCell id="9q5zIYayFqP9UG4JwgqR-2" value="Topic usuario ticket&lt;br&gt;" style="text;html=1;align=center;verticalAlign=middle;resizable=0;points=[];autosize=1;strokeColor=none;fillColor=none;" vertex="1" parent="9q5zIYayFqP9UG4JwgqR-12">
          <mxGeometry width="130" height="30" as="geometry" />
        </mxCell>
        <mxCell id="9q5zIYayFqP9UG4JwgqR-26" value="" style="group" vertex="1" connectable="0" parent="1">
          <mxGeometry x="1080" y="-550" width="480" height="540" as="geometry" />
        </mxCell>
        <mxCell id="9q5zIYayFqP9UG4JwgqR-25" value="" style="group" vertex="1" connectable="0" parent="9q5zIYayFqP9UG4JwgqR-26">
          <mxGeometry y="80" width="480" height="460" as="geometry" />
        </mxCell>
        <mxCell id="9q5zIYayFqP9UG4JwgqR-22" value="" style="group" vertex="1" connectable="0" parent="9q5zIYayFqP9UG4JwgqR-25">
          <mxGeometry x="30" y="-10" width="480" height="460" as="geometry" />
        </mxCell>
        <mxCell id="9q5zIYayFqP9UG4JwgqR-20" value="" style="shape=process;whiteSpace=wrap;html=1;backgroundOutline=1;" vertex="1" parent="9q5zIYayFqP9UG4JwgqR-22">
          <mxGeometry width="480" height="460" as="geometry" />
        </mxCell>
        <mxCell id="9q5zIYayFqP9UG4JwgqR-21" value="" style="group" vertex="1" connectable="0" parent="9q5zIYayFqP9UG4JwgqR-22">
          <mxGeometry x="115" y="30" width="250" height="400" as="geometry" />
        </mxCell>
        <mxCell id="9q5zIYayFqP9UG4JwgqR-9" value="" style="group" vertex="1" connectable="0" parent="9q5zIYayFqP9UG4JwgqR-21">
          <mxGeometry x="35" width="215" height="80" as="geometry" />
        </mxCell>
        <mxCell id="9q5zIYayFqP9UG4JwgqR-6" value="" style="shape=cylinder3;whiteSpace=wrap;html=1;boundedLbl=1;backgroundOutline=1;size=15;fillColor=#d5e8d4;strokeColor=#82b366;" vertex="1" parent="9q5zIYayFqP9UG4JwgqR-9">
          <mxGeometry width="60" height="80" as="geometry" />
        </mxCell>
        <mxCell id="9q5zIYayFqP9UG4JwgqR-7" value="TOPIC CREATE TICKET" style="text;html=1;align=center;verticalAlign=middle;resizable=0;points=[];autosize=1;strokeColor=none;fillColor=none;" vertex="1" parent="9q5zIYayFqP9UG4JwgqR-9">
          <mxGeometry x="55" y="25" width="160" height="30" as="geometry" />
        </mxCell>
        <mxCell id="9q5zIYayFqP9UG4JwgqR-10" value="Usuarios" style="rounded=1;whiteSpace=wrap;html=1;" vertex="1" parent="9q5zIYayFqP9UG4JwgqR-21">
          <mxGeometry x="5" y="170" width="120" height="60" as="geometry" />
        </mxCell>
        <mxCell id="9q5zIYayFqP9UG4JwgqR-11" style="edgeStyle=orthogonalEdgeStyle;rounded=0;orthogonalLoop=1;jettySize=auto;html=1;" edge="1" parent="9q5zIYayFqP9UG4JwgqR-21" source="9q5zIYayFqP9UG4JwgqR-6" target="9q5zIYayFqP9UG4JwgqR-10">
          <mxGeometry relative="1" as="geometry" />
        </mxCell>
        <mxCell id="9q5zIYayFqP9UG4JwgqR-16" value="" style="group" vertex="1" connectable="0" parent="9q5zIYayFqP9UG4JwgqR-21">
          <mxGeometry y="290" width="130" height="110" as="geometry" />
        </mxCell>
        <mxCell id="9q5zIYayFqP9UG4JwgqR-17" value="" style="shape=cylinder3;whiteSpace=wrap;html=1;boundedLbl=1;backgroundOutline=1;size=15;fillColor=#d5e8d4;strokeColor=#82b366;" vertex="1" parent="9q5zIYayFqP9UG4JwgqR-16">
          <mxGeometry x="35" y="30" width="60" height="80" as="geometry" />
        </mxCell>
        <mxCell id="9q5zIYayFqP9UG4JwgqR-18" value="Topic usuario ticket&lt;br&gt;" style="text;html=1;align=center;verticalAlign=middle;resizable=0;points=[];autosize=1;strokeColor=none;fillColor=none;" vertex="1" parent="9q5zIYayFqP9UG4JwgqR-16">
          <mxGeometry width="130" height="30" as="geometry" />
        </mxCell>
        <mxCell id="9q5zIYayFqP9UG4JwgqR-19" style="edgeStyle=orthogonalEdgeStyle;rounded=0;orthogonalLoop=1;jettySize=auto;html=1;" edge="1" parent="9q5zIYayFqP9UG4JwgqR-21" source="9q5zIYayFqP9UG4JwgqR-10" target="9q5zIYayFqP9UG4JwgqR-18">
          <mxGeometry relative="1" as="geometry" />
        </mxCell>
        <mxCell id="9q5zIYayFqP9UG4JwgqR-23" value="PCS" style="text;html=1;strokeColor=none;fillColor=none;align=center;verticalAlign=middle;whiteSpace=wrap;rounded=0;" vertex="1" parent="9q5zIYayFqP9UG4JwgqR-26">
          <mxGeometry x="80" width="60" height="30" as="geometry" />
        </mxCell>
        <mxCell id="9q5zIYayFqP9UG4JwgqR-27" value="" style="group" vertex="1" connectable="0" parent="1">
          <mxGeometry x="131" y="170" width="160" height="110" as="geometry" />
        </mxCell>
        <mxCell id="hO1tPXh8Bk7Fy7xaMDZI-28" value="" style="shape=cylinder3;whiteSpace=wrap;html=1;boundedLbl=1;backgroundOutline=1;size=15;fillColor=#d5e8d4;strokeColor=#82b366;" parent="9q5zIYayFqP9UG4JwgqR-27" vertex="1">
          <mxGeometry x="46" width="60" height="80" as="geometry" />
        </mxCell>
        <mxCell id="9q5zIYayFqP9UG4JwgqR-1" value="Topic Podructos en ticket" style="text;html=1;align=center;verticalAlign=middle;resizable=0;points=[];autosize=1;strokeColor=none;fillColor=none;" vertex="1" parent="9q5zIYayFqP9UG4JwgqR-27">
          <mxGeometry y="80" width="160" height="30" as="geometry" />
        </mxCell>
        <mxCell id="9q5zIYayFqP9UG4JwgqR-28" value="" style="group" vertex="1" connectable="0" parent="1">
          <mxGeometry x="-198" y="410.0033333333335" width="80" height="109.9966666666665" as="geometry" />
        </mxCell>
        <mxCell id="hO1tPXh8Bk7Fy7xaMDZI-34" value="" style="shape=cylinder3;whiteSpace=wrap;html=1;boundedLbl=1;backgroundOutline=1;size=15;fillColor=#dae8fc;strokeColor=#6c8ebf;" parent="9q5zIYayFqP9UG4JwgqR-28" vertex="1">
          <mxGeometry x="10" width="60" height="80" as="geometry" />
        </mxCell>
        <mxCell id="hO1tPXh8Bk7Fy7xaMDZI-35" value="DB Tickets" style="text;html=1;align=center;verticalAlign=middle;resizable=0;points=[];autosize=1;strokeColor=none;fillColor=none;" parent="9q5zIYayFqP9UG4JwgqR-28" vertex="1">
          <mxGeometry y="79.9966666666665" width="80" height="30" as="geometry" />
        </mxCell>
        <mxCell id="9q5zIYayFqP9UG4JwgqR-110" value="" style="group" vertex="1" connectable="0" parent="1">
          <mxGeometry x="910" y="45" width="690" height="940" as="geometry" />
        </mxCell>
        <mxCell id="9q5zIYayFqP9UG4JwgqR-146" value="" style="group" vertex="1" connectable="0" parent="9q5zIYayFqP9UG4JwgqR-110">
          <mxGeometry y="130" width="650" height="810" as="geometry" />
        </mxCell>
        <mxCell id="9q5zIYayFqP9UG4JwgqR-107" value="" style="shape=process;whiteSpace=wrap;html=1;backgroundOutline=1;" vertex="1" parent="9q5zIYayFqP9UG4JwgqR-146">
          <mxGeometry y="70" width="650" height="740" as="geometry" />
        </mxCell>
        <mxCell id="9q5zIYayFqP9UG4JwgqR-109" value="Mixbi" style="text;html=1;strokeColor=none;fillColor=none;align=center;verticalAlign=middle;whiteSpace=wrap;rounded=0;" vertex="1" parent="9q5zIYayFqP9UG4JwgqR-146">
          <mxGeometry x="39.99923076923078" width="63.69230769230769" height="54.23076923076923" as="geometry" />
        </mxCell>
        <mxCell id="9q5zIYayFqP9UG4JwgqR-145" value="" style="group" vertex="1" connectable="0" parent="9q5zIYayFqP9UG4JwgqR-146">
          <mxGeometry x="82.5" y="165" width="485" height="550" as="geometry" />
        </mxCell>
        <mxCell id="9q5zIYayFqP9UG4JwgqR-133" value="Catalogo" style="rounded=1;whiteSpace=wrap;html=1;" vertex="1" parent="9q5zIYayFqP9UG4JwgqR-145">
          <mxGeometry x="25" y="220" width="120" height="60" as="geometry" />
        </mxCell>
        <mxCell id="9q5zIYayFqP9UG4JwgqR-134" style="edgeStyle=orthogonalEdgeStyle;rounded=0;orthogonalLoop=1;jettySize=auto;html=1;entryX=0.5;entryY=0;entryDx=0;entryDy=0;" edge="1" parent="9q5zIYayFqP9UG4JwgqR-145" source="9q5zIYayFqP9UG4JwgqR-143" target="9q5zIYayFqP9UG4JwgqR-133">
          <mxGeometry relative="1" as="geometry" />
        </mxCell>
        <mxCell id="9q5zIYayFqP9UG4JwgqR-135" style="edgeStyle=orthogonalEdgeStyle;rounded=0;orthogonalLoop=1;jettySize=auto;html=1;entryX=1;entryY=0.5;entryDx=0;entryDy=0;" edge="1" parent="9q5zIYayFqP9UG4JwgqR-145" source="9q5zIYayFqP9UG4JwgqR-137" target="9q5zIYayFqP9UG4JwgqR-133">
          <mxGeometry relative="1" as="geometry">
            <Array as="points">
              <mxPoint x="200" y="250" />
              <mxPoint x="200" y="250" />
            </Array>
          </mxGeometry>
        </mxCell>
        <mxCell id="9q5zIYayFqP9UG4JwgqR-136" value="" style="group" vertex="1" connectable="0" parent="9q5zIYayFqP9UG4JwgqR-145">
          <mxGeometry x="270" y="210" width="215" height="80" as="geometry" />
        </mxCell>
        <mxCell id="9q5zIYayFqP9UG4JwgqR-137" value="" style="shape=cylinder3;whiteSpace=wrap;html=1;boundedLbl=1;backgroundOutline=1;size=15;fillColor=#d5e8d4;strokeColor=#82b366;" vertex="1" parent="9q5zIYayFqP9UG4JwgqR-136">
          <mxGeometry width="60" height="80" as="geometry" />
        </mxCell>
        <mxCell id="9q5zIYayFqP9UG4JwgqR-138" value="TOPIC CREATE TICKET" style="text;html=1;align=center;verticalAlign=middle;resizable=0;points=[];autosize=1;strokeColor=none;fillColor=none;" vertex="1" parent="9q5zIYayFqP9UG4JwgqR-136">
          <mxGeometry x="55" y="25" width="160" height="30" as="geometry" />
        </mxCell>
        <mxCell id="9q5zIYayFqP9UG4JwgqR-139" value="" style="group" vertex="1" connectable="0" parent="9q5zIYayFqP9UG4JwgqR-145">
          <mxGeometry x="39" y="440" width="160" height="110" as="geometry" />
        </mxCell>
        <mxCell id="9q5zIYayFqP9UG4JwgqR-140" value="" style="shape=cylinder3;whiteSpace=wrap;html=1;boundedLbl=1;backgroundOutline=1;size=15;fillColor=#d5e8d4;strokeColor=#82b366;" vertex="1" parent="9q5zIYayFqP9UG4JwgqR-139">
          <mxGeometry x="46" width="60" height="80" as="geometry" />
        </mxCell>
        <mxCell id="9q5zIYayFqP9UG4JwgqR-141" value="Topic Podructos en ticket" style="text;html=1;align=center;verticalAlign=middle;resizable=0;points=[];autosize=1;strokeColor=none;fillColor=none;" vertex="1" parent="9q5zIYayFqP9UG4JwgqR-139">
          <mxGeometry y="80" width="160" height="30" as="geometry" />
        </mxCell>
        <mxCell id="9q5zIYayFqP9UG4JwgqR-132" style="edgeStyle=orthogonalEdgeStyle;rounded=0;orthogonalLoop=1;jettySize=auto;html=1;" edge="1" parent="9q5zIYayFqP9UG4JwgqR-145" source="9q5zIYayFqP9UG4JwgqR-133" target="9q5zIYayFqP9UG4JwgqR-140">
          <mxGeometry relative="1" as="geometry">
            <Array as="points">
              <mxPoint x="115" y="330" />
              <mxPoint x="115" y="330" />
            </Array>
          </mxGeometry>
        </mxCell>
        <mxCell id="9q5zIYayFqP9UG4JwgqR-142" value="" style="group" vertex="1" connectable="0" parent="9q5zIYayFqP9UG4JwgqR-145">
          <mxGeometry width="190" height="120" as="geometry" />
        </mxCell>
        <mxCell id="9q5zIYayFqP9UG4JwgqR-143" value="" style="shape=cylinder3;whiteSpace=wrap;html=1;boundedLbl=1;backgroundOutline=1;size=15;fillColor=#d5e8d4;strokeColor=#82b366;" vertex="1" parent="9q5zIYayFqP9UG4JwgqR-142">
          <mxGeometry x="55" y="40" width="60" height="80" as="geometry" />
        </mxCell>
        <mxCell id="9q5zIYayFqP9UG4JwgqR-144" value="TOPIC APLICAR PROMOCION" style="text;html=1;align=center;verticalAlign=middle;resizable=0;points=[];autosize=1;strokeColor=none;fillColor=none;" vertex="1" parent="9q5zIYayFqP9UG4JwgqR-142">
          <mxGeometry width="190" height="30" as="geometry" />
        </mxCell>
        <mxCell id="9q5zIYayFqP9UG4JwgqR-130" value="" style="group" vertex="1" connectable="0" parent="1">
          <mxGeometry x="980" y="-1130" width="640" height="480" as="geometry" />
        </mxCell>
        <mxCell id="9q5zIYayFqP9UG4JwgqR-127" value="" style="shape=process;whiteSpace=wrap;html=1;backgroundOutline=1;" vertex="1" parent="9q5zIYayFqP9UG4JwgqR-130">
          <mxGeometry y="60" width="640" height="420" as="geometry" />
        </mxCell>
        <mxCell id="9q5zIYayFqP9UG4JwgqR-128" value="" style="group" vertex="1" connectable="0" parent="9q5zIYayFqP9UG4JwgqR-130">
          <mxGeometry x="110" y="100" width="460" height="340" as="geometry" />
        </mxCell>
        <mxCell id="9q5zIYayFqP9UG4JwgqR-119" value="Catalogo" style="rounded=1;whiteSpace=wrap;html=1;" vertex="1" parent="9q5zIYayFqP9UG4JwgqR-128">
          <mxGeometry y="10" width="120" height="60" as="geometry" />
        </mxCell>
        <mxCell id="9q5zIYayFqP9UG4JwgqR-120" style="edgeStyle=orthogonalEdgeStyle;rounded=0;orthogonalLoop=1;jettySize=auto;html=1;entryX=1;entryY=0.5;entryDx=0;entryDy=0;" edge="1" parent="9q5zIYayFqP9UG4JwgqR-128" source="9q5zIYayFqP9UG4JwgqR-122" target="9q5zIYayFqP9UG4JwgqR-119">
          <mxGeometry relative="1" as="geometry">
            <Array as="points">
              <mxPoint x="175" y="40" />
              <mxPoint x="175" y="40" />
            </Array>
          </mxGeometry>
        </mxCell>
        <mxCell id="9q5zIYayFqP9UG4JwgqR-121" value="" style="group" vertex="1" connectable="0" parent="9q5zIYayFqP9UG4JwgqR-128">
          <mxGeometry x="245" width="215" height="80" as="geometry" />
        </mxCell>
        <mxCell id="9q5zIYayFqP9UG4JwgqR-122" value="" style="shape=cylinder3;whiteSpace=wrap;html=1;boundedLbl=1;backgroundOutline=1;size=15;fillColor=#d5e8d4;strokeColor=#82b366;" vertex="1" parent="9q5zIYayFqP9UG4JwgqR-121">
          <mxGeometry width="60" height="80" as="geometry" />
        </mxCell>
        <mxCell id="9q5zIYayFqP9UG4JwgqR-123" value="TOPIC CREATE TICKET" style="text;html=1;align=center;verticalAlign=middle;resizable=0;points=[];autosize=1;strokeColor=none;fillColor=none;" vertex="1" parent="9q5zIYayFqP9UG4JwgqR-121">
          <mxGeometry x="55" y="25" width="160" height="30" as="geometry" />
        </mxCell>
        <mxCell id="9q5zIYayFqP9UG4JwgqR-124" value="" style="group" vertex="1" connectable="0" parent="9q5zIYayFqP9UG4JwgqR-128">
          <mxGeometry x="14" y="230" width="160" height="110" as="geometry" />
        </mxCell>
        <mxCell id="9q5zIYayFqP9UG4JwgqR-125" value="" style="shape=cylinder3;whiteSpace=wrap;html=1;boundedLbl=1;backgroundOutline=1;size=15;fillColor=#d5e8d4;strokeColor=#82b366;" vertex="1" parent="9q5zIYayFqP9UG4JwgqR-124">
          <mxGeometry x="46" width="60" height="80" as="geometry" />
        </mxCell>
        <mxCell id="9q5zIYayFqP9UG4JwgqR-126" value="Topic Podructos en ticket" style="text;html=1;align=center;verticalAlign=middle;resizable=0;points=[];autosize=1;strokeColor=none;fillColor=none;" vertex="1" parent="9q5zIYayFqP9UG4JwgqR-124">
          <mxGeometry y="80" width="160" height="30" as="geometry" />
        </mxCell>
        <mxCell id="9q5zIYayFqP9UG4JwgqR-118" style="edgeStyle=orthogonalEdgeStyle;rounded=0;orthogonalLoop=1;jettySize=auto;html=1;" edge="1" parent="9q5zIYayFqP9UG4JwgqR-128" source="9q5zIYayFqP9UG4JwgqR-119" target="9q5zIYayFqP9UG4JwgqR-125">
          <mxGeometry relative="1" as="geometry">
            <Array as="points">
              <mxPoint x="90" y="120" />
              <mxPoint x="90" y="120" />
            </Array>
          </mxGeometry>
        </mxCell>
        <mxCell id="9q5zIYayFqP9UG4JwgqR-129" value="Agr" style="text;html=1;strokeColor=none;fillColor=none;align=center;verticalAlign=middle;whiteSpace=wrap;rounded=0;" vertex="1" parent="9q5zIYayFqP9UG4JwgqR-130">
          <mxGeometry x="30" width="60" height="30" as="geometry" />
        </mxCell>
        <mxCell id="9q5zIYayFqP9UG4JwgqR-131" value="" style="group" vertex="1" connectable="0" parent="1">
          <mxGeometry x="92" y="-270" width="190" height="120" as="geometry" />
        </mxCell>
        <mxCell id="hO1tPXh8Bk7Fy7xaMDZI-18" value="" style="shape=cylinder3;whiteSpace=wrap;html=1;boundedLbl=1;backgroundOutline=1;size=15;fillColor=#d5e8d4;strokeColor=#82b366;" parent="9q5zIYayFqP9UG4JwgqR-131" vertex="1">
          <mxGeometry x="55" y="40" width="60" height="80" as="geometry" />
        </mxCell>
        <mxCell id="hO1tPXh8Bk7Fy7xaMDZI-38" value="TOPIC APLICAR PROMOCION" style="text;html=1;align=center;verticalAlign=middle;resizable=0;points=[];autosize=1;strokeColor=none;fillColor=none;" parent="9q5zIYayFqP9UG4JwgqR-131" vertex="1">
          <mxGeometry width="190" height="30" as="geometry" />
        </mxCell>
      </root>
    </mxGraphModel>
  </diagram>
</mxfile>
